<svg width="56" height="46" viewBox="0 0 56 46" fill="none" xmlns="http://www.w3.org/2000/svg">
<g id="Group 23">
<path id="Vector" fill-rule="evenodd" clip-rule="evenodd" d="M8.95095 11.4898C11.1725 5.87386 13.8447 2 19.8939 2H36.1089C42.1524 2 44.8276 5.87386 47.0519 11.4898L49.2735 17.4984C50.9288 17.5188 52.4494 18.4347 53.2687 19.9048C53.7507 20.7422 54.0032 21.6968 53.9996 22.6685V30.4162C54.0212 32.2253 53.1276 33.9174 51.6367 34.8924C50.9274 35.3439 50.109 35.583 49.2735 35.5833H6.72654C5.89114 35.583 5.07255 35.3439 4.36346 34.8924C2.87228 33.9174 1.97887 32.2253 2.00038 30.4162V22.6685C1.99724 21.6979 2.24971 20.7442 2.73124 19.9078C3.55061 18.4376 5.07124 17.5217 6.72654 17.5014L8.95095 11.4898Z" stroke="#363745" stroke-width="3.75" stroke-linecap="round" stroke-linejoin="round"/>
<path id="Vector_2" d="M43.9903 40.4787C44.16 41.2572 44.5219 41.9779 45.04 42.568L46.1113 40.8193C46.0627 40.7336 46.0188 40.645 45.9796 40.5541L44.7858 40.4787M44.7858 40.4787H44.7856H44.7858ZM6.21002 35.901V37.9787H5.29304L4.33548 37.9476V35.901H6.21002ZM13.1907 36.5964V37.9513L12.2336 37.9816H11.3161V36.5964H13.1907ZM5.25248 40.4787L6.45075 40.5176C6.6694 41.0139 7.02358 41.4311 7.46283 41.7191L7.51089 43.1135L7.4847 43.8566C5.98621 43.3534 4.83708 42.0681 4.46323 40.4787H5.25248ZM13.0621 40.4816C12.6872 42.071 11.5371 43.3556 10.038 43.8578L10.0124 43.1145L10.0124 43.1144L10.0615 41.72C10.5009 41.4324 10.8554 41.0157 11.0744 40.5196L12.2732 40.4816H13.0621ZM10.0109 43.0709L9.96639 41.7794L10.0109 43.0709ZM7.4183 40.549L7.42251 40.5492L7.4183 40.549ZM7.55793 41.7786L7.51242 43.0699L7.55793 41.7786ZM52.7429 35.901V37.917L51.7663 37.9787H50.8684V35.901H52.7429ZM45.7623 37.9787H44.8646L43.8878 37.917V36.5934H45.7623V37.9787Z" fill="#363745" stroke="#363745" stroke-width="2.5"/>
</g>
</svg>
