<svg width="36" height="38" viewBox="0 0 36 38" fill="none" xmlns="http://www.w3.org/2000/svg">
<g id="Group 8467">
<path id="Ellipse 283" d="M1 10.4174L6.23776 7.98855L1.51545 4.66694L1 10.4174ZM34.5 18.8094C34.5 28.4634 26.6484 36.2922 16.9596 36.2922V37.2922C27.1977 37.2922 35.5 29.0187 35.5 18.8094H34.5ZM16.9596 1.32654C26.6484 1.32654 34.5 9.15538 34.5 18.8094H35.5C35.5 8.60008 27.1977 0.326538 16.9596 0.326538V1.32654ZM16.9596 36.2922C10.2286 36.2922 4.38294 32.5135 1.44173 26.9671L0.558267 27.4356C3.66657 33.2971 9.84507 37.2922 16.9596 37.2922V36.2922ZM3.95911 7.07275C7.16887 3.54285 11.8041 1.32654 16.9596 1.32654V0.326538C11.5112 0.326538 6.61092 2.67003 3.21925 6.39999L3.95911 7.07275Z" fill="#363745"/>
<path id="Vector 3" d="M16.9597 6.82092V21.2072L25.9799 30.1986" stroke="#363745"/>
</g>
</svg>
