<svg width="49" height="49" viewBox="0 0 49 49" fill="none" xmlns="http://www.w3.org/2000/svg">
<g id="destination-4_svgrepo.com" clip-path="url(#clip0_380_1260)">
<g id="Group">
<path id="Vector" d="M16.6007 21.5034C19.3671 26.8059 23.2999 32.273 23.3209 32.3044L24.6219 34.1137L25.9214 32.3044C25.9363 32.2849 28.2257 29.0954 30.5361 25.2447C31.6905 23.3157 32.8524 21.2222 33.7451 19.2409C34.1892 18.2495 34.569 17.288 34.8457 16.3683C35.1208 15.4487 35.3003 14.5768 35.3032 13.7095C35.3017 7.80887 30.5226 3.02668 24.6219 3.02515C18.7197 3.02668 13.939 7.80877 13.9375 13.7095C13.942 14.5769 14.1214 15.4487 14.3966 16.3683C14.881 17.9744 15.6781 19.7284 16.6007 21.5034ZM19.3298 8.41744C20.6891 7.06114 22.5493 6.2267 24.6219 6.22527C26.693 6.2268 28.5532 7.06114 29.9125 8.41744C31.2688 9.77825 32.1032 11.637 32.1032 13.7095C32.1062 14.0969 32.003 14.7174 31.7817 15.4471C31.3974 16.7332 30.6737 18.3571 29.8034 20.0244C28.4994 22.5292 26.8709 25.1475 25.576 27.1259C25.2275 27.6552 24.909 28.1337 24.6219 28.5585C23.7172 27.2216 22.4611 25.3045 21.2319 23.2305C20.1552 21.4136 19.1025 19.4801 18.3384 17.7499C17.9556 16.8886 17.6446 16.0767 17.4397 15.3753C17.2318 14.6769 17.1361 14.0833 17.1391 13.7094C17.1391 11.637 17.9735 9.77825 19.3298 8.41744Z" fill="#363745"/>
<path id="Vector_2" d="M24.6218 17.1834C26.5388 17.1834 28.0955 15.6297 28.0955 13.7096C28.0955 11.7911 26.5388 10.2344 24.6218 10.2344C22.7032 10.2344 21.1465 11.7911 21.1465 13.7096C21.1466 15.6297 22.7033 17.1834 24.6218 17.1834Z" fill="#363745"/>
<path id="Vector_3" d="M48.9857 43.8142C48.9663 43.6766 48.9318 43.5361 48.878 43.3955C48.8257 43.252 48.7569 43.1084 48.6686 42.9664L39.3152 27.3368C39.2958 27.3025 39.2703 27.2666 39.2419 27.2337C39.2119 27.1993 39.1791 27.1678 39.1432 27.1335C39.1058 27.1021 39.0669 27.0692 39.0236 27.0362C38.9787 27.0063 38.9324 26.9734 38.883 26.945C38.8083 26.8987 38.729 26.8568 38.6437 26.8179C38.557 26.7775 38.4658 26.7387 38.3686 26.7013C38.2729 26.6683 38.1742 26.6325 38.068 26.6056C37.9619 26.5726 37.8542 26.5428 37.742 26.5173C37.6299 26.4919 37.5147 26.4695 37.3951 26.4485C37.277 26.4291 37.1543 26.4111 37.0317 26.3977C36.9091 26.3857 36.785 26.3738 36.6579 26.3677C36.5338 26.3603 36.4082 26.3542 36.2826 26.3542H31.7127C31.6753 26.417 31.6439 26.4739 31.6066 26.5367C31.3763 26.9195 31.1475 27.2933 30.9217 27.6596H36.1226L37.3803 30.4007H30.3386L30.065 29.0189C29.5251 29.8593 29.0272 30.6129 28.604 31.235H28.6638L29.2306 35.5327H25.567H24.5007H23.4331H19.7695L20.3377 31.235H20.396C19.9728 30.6129 19.4749 29.8593 18.935 29.0189L18.6614 30.4007H11.6198L12.8788 27.6596H18.0797C17.8524 27.2933 17.6236 26.9195 17.3933 26.5367C17.3559 26.4739 17.3245 26.417 17.2872 26.3542H12.7174C12.5917 26.3542 12.4677 26.3603 12.342 26.3677C12.2164 26.3738 12.0908 26.3857 11.9682 26.3977C11.8456 26.4112 11.7229 26.4291 11.6048 26.4485C11.4867 26.4695 11.3715 26.4919 11.2594 26.5173C11.1474 26.5428 11.0381 26.5726 10.9335 26.6056C10.8273 26.6325 10.7271 26.6683 10.6314 26.7013C10.5342 26.7387 10.443 26.7775 10.3563 26.8179C10.271 26.8568 10.1918 26.8987 10.117 26.945C10.0676 26.9734 10.0213 27.0064 9.97797 27.0362C9.93462 27.0692 9.89424 27.1021 9.85682 27.1335C9.82093 27.1678 9.788 27.1993 9.75958 27.2337C9.72963 27.2666 9.70426 27.3025 9.6833 27.3368L0.3311 42.9663C0.244393 43.1083 0.175582 43.2519 0.121701 43.3954C0.0693518 43.536 0.0334631 43.6766 0.0155666 43.8141C-0.00386112 43.9518 -0.00539237 44.0893 0.00953732 44.2179C0.024467 44.348 0.0558576 44.4736 0.10524 44.5948C0.151561 44.7159 0.217405 44.8311 0.298178 44.9387C0.37742 45.0509 0.473123 45.1525 0.585287 45.2468C0.697451 45.3425 0.823014 45.4308 0.965133 45.5085C1.10572 45.5892 1.26124 45.6595 1.43169 45.7223C1.54682 45.7597 1.66645 45.797 1.79354 45.8284C1.91767 45.8598 2.04926 45.8867 2.18678 45.9076C2.3244 45.93 2.46643 45.9451 2.61295 45.9585C2.75804 45.9675 2.90905 45.9749 3.06457 45.9749H24.5005H45.9365C46.0905 45.9749 46.2416 45.9675 46.3881 45.9585C46.5347 45.945 46.6768 45.93 46.8143 45.9076C46.9504 45.8867 47.082 45.8598 47.2075 45.8284C47.3331 45.797 47.4543 45.7596 47.5694 45.7223C47.7384 45.6595 47.8939 45.5891 48.0359 45.5085C48.1765 45.4307 48.3036 45.3425 48.4158 45.2468C48.5264 45.1526 48.6207 45.0509 48.7029 44.9387C48.7821 44.8311 48.848 44.7159 48.8943 44.5948C48.9422 44.4736 48.9751 44.3481 48.99 44.2179C49.0051 44.0894 49.0036 43.9518 48.9857 43.8142ZM16.339 42.1169H6.2423L8.72015 36.7172H17.4097L16.339 42.1169ZM17.6444 35.5328H9.26585L11.2368 31.2352H18.4953L17.6444 35.5328ZM24.5006 42.1169H18.899L19.6123 36.7172H24.5006H29.3875L30.1023 42.1169H24.5006ZM30.5045 31.2352H37.763L39.7353 35.5328H31.3553L30.5045 31.2352ZM32.6608 42.1169L31.5916 36.7172H40.2796L42.7574 42.1169H32.6608Z" fill="#363745"/>
</g>
</g>
<defs>
<clipPath id="clip0_380_1260">
<rect width="49" height="49" fill="white"/>
</clipPath>
</defs>
</svg>
