<svg width="47" height="47" viewBox="0 0 47 47" fill="none" xmlns="http://www.w3.org/2000/svg">
<g id="steering-wheel-car_svgrepo.com" clip-path="url(#clip0_380_298)">
<g id="Group">
<g id="Group_2">
<path id="Vector" d="M40.1171 6.88302C35.6785 2.44437 29.7771 0 23.5 0C17.2229 0 11.3216 2.44437 6.88293 6.88302C2.44437 11.3216 0 17.2229 0 23.5C0 29.7771 2.44437 35.6784 6.88293 40.117C11.3216 44.5556 17.2229 47 23.5 47C29.7771 47 35.6784 44.5556 40.1171 40.117C44.5556 35.6785 47 29.7771 47 23.5C47 17.2229 44.5556 11.3216 40.1171 6.88302ZM23.5 5.25656C32.7515 5.25656 40.416 12.1789 41.5877 21.1159L30.2791 20.0145C29.0111 17.5584 26.4493 15.8742 23.5 15.8742C20.5507 15.8742 17.9889 17.5584 16.7209 20.0145L5.41234 21.1159C6.58404 12.1789 14.2485 5.25656 23.5 5.25656ZM5.40583 25.8293L16.5804 26.6999C17.2863 28.2192 18.4777 29.4691 19.9548 30.2484L20.6872 41.5264C12.7151 40.2874 6.43487 33.8678 5.40583 25.8293ZM23.5 25.8692C22.1935 25.8692 21.1308 24.8064 21.1308 23.5C21.1308 22.1936 22.1937 21.1308 23.5 21.1308C24.8063 21.1308 25.8692 22.1937 25.8692 23.5C25.8692 24.8063 24.8065 25.8692 23.5 25.8692ZM26.313 41.5264L27.0454 30.2484C28.5225 29.4692 29.7138 28.2192 30.4198 26.6999L41.5944 25.8293C40.5651 33.8678 34.2849 40.2874 26.313 41.5264Z" fill="#363745"/>
</g>
</g>
</g>
<defs>
<clipPath id="clip0_380_298">
<rect width="47" height="47" fill="white"/>
</clipPath>
</defs>
</svg>
