<svg width="44" height="46" viewBox="0 0 44 46" fill="none" xmlns="http://www.w3.org/2000/svg">
<g id="Group">
<path id="Vector" d="M30.9836 30.0936C31.3968 30.0936 31.7412 29.9558 32.0167 29.7492C32.2233 29.5426 32.361 29.2671 32.361 28.9917V25.9614C27.8845 22.7245 24.3033 16.8017 24.3033 11.2233C24.3033 5.92031 28.5732 1.65039 33.8073 1.65039C39.0414 1.65039 43.3113 5.92031 43.3113 11.1544C43.3113 16.7329 39.799 22.449 35.4602 25.7548V28.9228C35.4602 30.0936 34.9092 31.1955 34.0828 31.9531C33.2563 32.7106 32.1544 33.1927 30.9836 33.1927H24.8542C24.2344 33.1927 23.4768 33.6059 23.4768 34.3635C23.4768 35.0522 24.1655 35.4654 24.7854 35.5343H38.7659C41.2452 35.5343 43.2424 37.5315 43.2424 40.0108C43.2424 42.4901 41.2452 44.4874 38.7659 44.4874H10.0472C9.35854 44.4874 5.36409 41.5948 2.95365 37.3249C1.57626 34.9145 0.543213 32.0219 0.543213 28.9917C0.543213 23.7576 4.81314 19.4876 10.0472 19.4876C15.2813 19.4876 19.5513 23.7576 19.5513 28.9917C19.5513 32.0908 18.5182 34.9145 17.1408 37.3249C16.2455 38.9089 15.1436 40.2863 14.0417 41.3882H38.7659C39.5235 41.3882 40.1433 40.7684 40.1433 40.0108C40.1433 39.2533 39.5235 38.6334 38.7659 38.6334C34.1516 38.6334 29.2619 38.7712 24.6476 38.6334C22.3749 38.5646 20.3777 36.7739 20.3777 34.3635C20.3777 31.9531 22.5127 30.0936 24.8542 30.0936H25.5429H30.9836Z" fill="#363745"/>
<path id="Vector_2" d="M30.9836 29.4049C31.2591 29.4049 31.6723 29.2671 31.6723 28.9228V26.2369C29.3996 24.5151 27.3335 22.1047 25.8873 19.4876C24.441 16.8706 23.6146 13.978 23.6146 11.1544C23.6146 5.50707 28.16 0.96167 33.8073 0.96167C39.4546 0.96167 44 5.50707 44 11.1544C44 13.978 43.1736 16.8017 41.7962 19.3499C40.3499 21.9669 38.4216 24.3085 36.1489 26.0991V28.9916C36.1489 31.7464 33.7384 33.8814 31.0525 33.8814H24.9231C24.6476 33.8814 24.2344 34.0191 24.2344 34.3635C24.2344 34.7078 24.6476 34.8456 24.9231 34.8456H38.9036C41.7273 34.8456 44 37.1871 44 39.9419C44 42.7656 41.7273 45.0383 38.9036 45.0383H10.0472C9.49627 45.0383 7.70566 43.9364 5.84617 42.0769C3.36686 39.5976 1.50738 36.5673 0.543204 33.1927C-1.45402 26.168 2.12721 18.6612 10.1161 18.6612C17.8984 18.6612 21.6862 26.0302 19.689 33.1927C18.9314 35.9475 17.4852 38.4957 15.6945 40.6306H38.9725C39.3857 40.6306 39.6612 40.2863 39.6612 39.9419C39.6612 39.5287 39.3857 39.2532 38.9725 39.2532C34.2894 39.2532 29.5374 39.391 24.8542 39.2532C22.1683 39.1844 19.8956 37.0494 19.8956 34.3635C19.8956 31.6087 22.306 29.4737 24.992 29.4737H25.6807H30.9836V29.4049ZM30.9836 30.7134H24.8542C22.857 30.7134 21.0664 32.2285 21.0664 34.2946C21.0664 36.2918 22.7881 37.807 24.7165 37.8758C29.3996 38.0136 34.0828 37.8758 38.7659 37.8758C39.8678 37.8758 40.7631 38.7711 40.7631 39.8731C40.7631 40.975 39.8678 41.8703 38.7659 41.8703H14.1105H12.5265L13.6285 40.7684C15.7634 38.4957 17.4852 35.7409 18.3116 32.7106C20.1022 26.4435 16.9342 19.9008 10.0472 19.9008C2.95364 19.9008 -0.0077536 26.5123 1.78286 32.7106C2.67817 35.9475 4.53765 38.7711 6.81035 41.1127C8.39435 42.7656 9.77175 43.7298 10.0472 43.7298H38.8348C40.9009 43.7298 42.6226 42.008 42.6226 39.9419C42.6226 37.8758 40.9009 36.1541 38.8348 36.1541H24.8542C23.8212 36.1541 22.857 35.3965 22.857 34.3635C22.857 33.2616 23.89 32.5729 24.8542 32.5729H30.9836C32.912 32.5729 34.7715 31.0577 34.7715 28.9916V25.5482C37.1819 22.8622 38.5593 22.3802 40.5565 18.7301C41.865 16.3885 42.6226 13.7714 42.6226 11.1544C42.6226 6.26464 38.697 2.33906 33.8073 2.33906C28.9175 2.33906 24.992 6.33351 24.992 11.1544C24.992 13.7714 25.8184 16.4574 27.1269 18.8678C28.5732 21.5537 30.5704 23.7575 33.0497 25.617V28.9916C33.0497 30.0247 32.0167 30.7134 30.9836 30.7134Z" fill="black"/>
<path id="Vector_3" fill-rule="evenodd" clip-rule="evenodd" d="M14.455 28.854C14.455 26.4435 12.4578 24.4463 10.0473 24.4463C7.63687 24.4463 5.63965 26.4435 5.63965 28.854C5.63965 31.2644 7.63687 33.2616 10.0473 33.2616C12.4578 33.1927 14.455 31.2644 14.455 28.854Z" fill="#E6E6E6"/>
<path id="Vector_4" d="M13.7663 28.8539C13.7663 27.8209 13.353 26.8567 12.6643 26.2369C11.9756 25.5482 11.0803 25.135 10.0473 25.135C9.01424 25.135 8.11893 25.5482 7.43024 26.2369C6.74154 26.9256 6.32832 27.8209 6.32832 28.8539C6.32832 29.887 6.74154 30.7823 7.43024 31.471C8.11893 32.1597 9.01424 32.5729 10.0473 32.5729C11.0803 32.5729 12.0445 32.1597 12.6643 31.471C13.353 30.7823 13.7663 29.8181 13.7663 28.8539ZM13.6285 25.2727C14.5238 26.168 15.1436 27.4765 15.1436 28.8539C15.1436 30.2313 14.5927 31.5398 13.6285 32.4352C12.7332 33.3305 11.4247 33.9503 10.0473 33.9503C8.66989 33.9503 7.36137 33.3993 6.46606 32.4352C5.57076 31.5398 4.95093 30.2313 4.95093 28.8539C4.95093 27.4765 5.50189 26.168 6.46606 25.2727C7.36137 24.3774 8.66989 23.7576 10.0473 23.7576C11.4247 23.7576 12.7332 24.3085 13.6285 25.2727Z" fill="black"/>
<path id="Vector_5" fill-rule="evenodd" clip-rule="evenodd" d="M30.7082 14.2535C31.5346 15.0799 32.6365 15.562 33.8073 15.562C36.2178 15.562 38.215 13.5648 38.215 11.1544C38.215 8.74393 36.2178 6.7467 33.8073 6.7467C31.3969 6.7467 29.3997 8.74393 29.3997 11.1544C29.3997 12.3252 29.8817 13.4271 30.7082 14.2535Z" fill="#E6E6E6"/>
<path id="Vector_6" d="M33.8073 14.8733C35.8734 14.8733 37.5263 13.2204 37.5263 11.1543C37.5263 9.08825 35.8734 7.43538 33.8073 7.43538C31.7412 7.43538 30.0883 9.08825 30.0883 11.1543C30.0883 13.2204 31.7412 14.8733 33.8073 14.8733ZM28.7109 11.1543C28.7109 8.39955 30.9836 6.05798 33.8073 6.05798C36.631 6.05798 38.9037 8.33068 38.9037 11.1543C38.9037 13.978 36.631 16.2507 33.8073 16.2507C30.9836 16.1818 28.7109 13.9091 28.7109 11.1543Z" fill="black"/>
</g>
</svg>
