<svg width="45" height="50" viewBox="0 0 45 50" fill="none" xmlns="http://www.w3.org/2000/svg">
<path id="Vector" d="M7.5 50H37.5C39.4891 50 41.3968 49.2098 42.8033 47.8033C44.2098 46.3968 45 44.4891 45 42.5V12.5C45 11.1739 44.4732 9.90215 43.5355 8.96447C42.5979 8.02678 41.3261 7.5 40 7.5H35V2.5C35 1.83696 34.7366 1.20107 34.2678 0.732233C33.7989 0.263392 33.163 0 32.5 0C31.837 0 31.2011 0.263392 30.7322 0.732233C30.2634 1.20107 30 1.83696 30 2.5V7.5H15V2.5C15 1.83696 14.7366 1.20107 14.2678 0.732233C13.7989 0.263392 13.163 0 12.5 0C11.837 0 11.2011 0.263392 10.7322 0.732233C10.2634 1.20107 10 1.83696 10 2.5V7.5H5C3.67392 7.5 2.40215 8.02678 1.46447 8.96447C0.526784 9.90215 0 11.1739 0 12.5V42.5C0 44.4891 0.790177 46.3968 2.1967 47.8033C3.60322 49.2098 5.51088 50 7.5 50ZM5 26.25C5 25.9185 5.1317 25.6005 5.36612 25.3661C5.60054 25.1317 5.91848 25 6.25 25H38.75C39.0815 25 39.3995 25.1317 39.6339 25.3661C39.8683 25.6005 40 25.9185 40 26.25V42.5C40 43.163 39.7366 43.7989 39.2678 44.2678C38.7989 44.7366 38.163 45 37.5 45H7.5C6.83696 45 6.20107 44.7366 5.73223 44.2678C5.26339 43.7989 5 43.163 5 42.5V26.25Z" fill="#363745"/>
</svg>
