<svg width="71" height="71" viewBox="0 0 71 71" fill="none" xmlns="http://www.w3.org/2000/svg">
<g id="Group 8470">
<g id="Group 9">
<rect id="Rectangle 19" width="71" height="71" rx="10" fill="#363745"/>
<g id="Group 6">
<path id="Vector" d="M17 30.2417C17 20.2282 17 15.2216 19.7825 12.1108C22.565 9 27.0433 9 36 9C44.9566 9 49.4351 9 52.2174 12.1108C55 15.2216 55 20.2282 55 30.2417V40.8625C55 50.8758 55 55.8827 52.2174 58.9933C49.4351 62.1042 44.9566 62.1042 36 62.1042C27.0433 62.1042 22.565 62.1042 19.7825 58.9933C17 55.8827 17 50.8758 17 40.8625V30.2417Z" stroke="#D8B04B" stroke-width="3.75"/>
<path id="Vector_2" d="M43.125 16.9656H28.875" stroke="#D8B04B" stroke-width="3.75" stroke-linecap="round"/>
<path id="Vector_3" d="M35.9999 56.7938C37.3116 56.7938 38.3749 55.605 38.3749 54.1386C38.3749 52.6722 37.3116 51.4834 35.9999 51.4834C34.6883 51.4834 33.6249 52.6722 33.6249 54.1386C33.6249 55.605 34.6883 56.7938 35.9999 56.7938Z" stroke="#D8B04B" stroke-width="2.5"/>
<path id="Vector_4" d="M17 48.8281H55" stroke="#D8B04B" stroke-width="2.5"/>
<path id="Vector_5" d="M17 22.2761H55" stroke="#D8B04B" stroke-width="2.5"/>
</g>
</g>
</g>
</svg>
