<svg width="39" height="39" viewBox="0 0 39 39" fill="none" xmlns="http://www.w3.org/2000/svg">
<g id="steering-wheel-car_svgrepo.com" clip-path="url(#clip0_370_68)">
<g id="Group">
<g id="Group_2">
<path id="Vector" d="M33.2886 5.71144C29.6056 2.0283 24.7086 0 19.5 0C14.2914 0 9.39451 2.0283 5.71137 5.71144C2.0283 9.39451 0 14.2914 0 19.5C0 24.7086 2.0283 29.6055 5.71137 33.2886C9.39451 36.9717 14.2914 39 19.5 39C24.7086 39 29.6055 36.9717 33.2886 33.2886C36.9717 29.6056 39 24.7086 39 19.5C39 14.2914 36.9717 9.39451 33.2886 5.71144ZM19.5 4.36183C27.1768 4.36183 33.5366 10.1059 34.5089 17.5217L25.1252 16.6078C24.0731 14.5698 21.9473 13.1722 19.5 13.1722C17.0527 13.1722 14.9269 14.5698 13.8748 16.6078L4.49109 17.5217C5.46335 10.1059 11.8232 4.36183 19.5 4.36183ZM4.48569 21.4329L13.7582 22.1553C14.3439 23.4159 15.3326 24.4531 16.5582 25.0997L17.1659 34.4581C10.5508 33.4299 5.33957 28.1031 4.48569 21.4329ZM19.5 21.4659C18.4159 21.4659 17.5341 20.584 17.5341 19.5C17.5341 18.416 18.4161 17.5341 19.5 17.5341C20.5839 17.5341 21.4659 18.4161 21.4659 19.5C21.4659 20.5839 20.5841 21.4659 19.5 21.4659ZM21.8342 34.4581L22.4419 25.0997C23.6676 24.4532 24.6561 23.4159 25.242 22.1553L34.5145 21.4329C33.6604 28.1031 28.4492 33.4299 21.8342 34.4581Z" fill="#D8B04B"/>
</g>
</g>
</g>
<defs>
<clipPath id="clip0_370_68">
<rect width="39" height="39" fill="white"/>
</clipPath>
</defs>
</svg>
