<svg width="63" height="63" viewBox="0 0 63 63" fill="none" xmlns="http://www.w3.org/2000/svg">
<g id="Group 22">
<path id="Vector" d="M38.25 0C31.042 0 25.2 5.9241 25.2 13.2333C25.2 15.3643 26.3137 17.9641 27.8828 20.571C28.9475 22.3326 30.2154 24.1013 31.5043 25.7279C34.8386 29.9615 38.25 33.3 38.25 33.3C38.25 33.3 39.4898 32.0853 41.213 30.1888C42.1937 29.102 43.3355 27.8021 44.4843 26.3672C47.8396 22.1976 51.3 16.991 51.3 13.2333C51.3 5.9241 45.4579 0 38.25 0ZM43.6997 25.0887C43.1393 25.799 42.5719 26.4809 42.0256 27.1202C41.4792 27.7595 40.9468 28.3632 40.4495 28.9173C39.5739 29.8904 38.8103 30.7002 38.25 31.2827C37.3743 30.3735 35.9874 28.9031 34.4814 27.1273C33.935 26.488 33.3746 25.8132 32.8142 25.1029C31.8685 23.9166 31.028 22.7801 30.2855 21.6933C29.578 20.6562 28.9686 19.676 28.4572 18.7455C27.2243 16.5008 26.5939 14.6398 26.5939 13.2191C26.5939 10.0653 27.8057 7.09614 30.0053 4.86572C32.2048 2.6353 35.1328 1.40644 38.2429 1.40644C41.3531 1.40644 44.2811 2.6353 46.4806 4.86572C48.6801 7.09614 49.892 10.0653 49.892 13.2191C49.892 14.6398 49.2686 16.4937 48.0357 18.7313C46.999 20.642 45.542 22.773 43.6997 25.0887Z" fill="#363745"/>
<path id="Vector_2" d="M38.2499 8.64828C40.7311 8.64828 42.7551 10.8279 42.7551 13.5C42.7551 16.1721 40.7311 18.3517 38.2499 18.3517C35.7687 18.3517 33.7447 16.1721 33.7447 13.5C33.7447 10.8279 35.762 8.64828 38.2499 8.64828ZM38.2499 7.2C35.0223 7.2 32.3999 10.0169 32.3999 13.5C32.3999 16.9759 35.0156 19.8 38.2499 19.8C41.4775 19.8 44.0999 16.9831 44.0999 13.5C44.0999 10.0169 41.4775 7.2 38.2499 7.2Z" fill="#363745"/>
<path id="Vector_3" d="M60.743 20.2135L46.9828 25.1656L44.4797 26.0673C43.3266 27.4831 42.1805 28.7793 41.1961 29.857L41.3297 29.9204V59.2666L40.4367 58.851L37.1812 57.3294L22.2609 50.3627L21.6562 50.0809V20.8475L31.4578 25.4262C30.1641 23.8061 28.8914 22.0591 27.8227 20.3122L22.3664 17.7622L22.1062 17.6424L21.5016 17.3606L20.9531 17.1L20.7984 17.1564L0 24.6443V60.6965L20.9531 53.1522L37.1812 60.7318L40.4367 62.2533L42.0328 63L63 55.4557V19.4035L60.743 20.2135ZM20.25 50.1162L19.9055 50.243L3.09375 56.2939V26.821L20.25 20.6432V50.1162ZM59.9062 53.279L42.7359 59.4568V29.9838L43.0945 29.857L59.9062 23.8061V53.279Z" fill="#363745"/>
</g>
</svg>
